<svg id="Capa_1" data-name="Capa 1" xmlns="http://www.w3.org/2000/svg" viewBox="0 0 299.5249 88.202"><defs><style>.cls-1{fill:#808380;}.cls-2{fill:#73767a;}.cls-3{fill:#4f5065;}.cls-4{fill:#2f3250;}.cls-5{fill:#222646;}.cls-6{fill:#3f2950;}.cls-7{fill:#652c5f;}.cls-8{fill:#8c2a6a;}.cls-9{fill:#bb2278;}.cls-10{fill:#d41f7f;}.cls-11{fill:#4d504f;}</style></defs><g id="Layer_1" data-name="Layer 1"><path d="M215.0115,85.4089c.0516,0,.0736-.0248.0659-.0754h1.489c-.0067.0516.0153.0764.0668.0764Z"/><path class="cls-1" d="M52.5161,40.2788l-6.2739-4.7362a2.1077,2.1077,0,0,0-1.9684-.3066l-15.71,5.506a.3514.3514,0,0,0,.0258.6685L38.76,44.1258l11.7474,3.4135c-.0181-.2646-.0286-.53-.0286-.7994A11.1908,11.1908,0,0,1,52.5161,40.2788Z"/><path class="cls-2" d="M50.5008,47.5373l-10.41-3.0228a2.1086,2.1086,0,0,0-2.1766.6371L26.92,57.74a.3515.3515,0,0,0,.3582.5731L51.561,51.5792A11.1867,11.1867,0,0,1,50.5008,47.5373Z"/><path class="cls-3" d="M51.561,51.5764l-12.7417,3.54A2.1078,2.1078,0,0,0,37.2759,57.08l-.5472,16.8427a.3514.3514,0,0,0,.6284.2273L53.0643,53.9258A11.251,11.251,0,0,1,51.561,51.5764Z"/><path class="cls-4" d="M53.0624,53.9239,44.5249,64.84a2.107,2.107,0,0,0-.2454,2.1967L51.7186,82.78a.3514.3514,0,0,0,.6685-.1051l1.6007-12.3109L55.7719,56.29A11.3243,11.3243,0,0,1,53.0624,53.9239Z"/><path class="cls-5" d="M69.1114,83.7051l-6.1382-25.787a11.5628,11.5628,0,0,1-1.2521.07,11.201,11.201,0,0,1-6.017-1.744l-1.7163,14.12,14.541,13.68a.3514.3514,0,0,0,.5826-.3381Z"/><path class="cls-6" d="M87.5921,76.0941,69.1687,55.1713a11.2044,11.2044,0,0,1-6.1955,2.7506l2.8155,11.7875a2.11,2.11,0,0,0,1.4995,1.5453l19.9486,5.4124a.3514.3514,0,0,0,.3553-.573Z"/><path class="cls-7" d="M97.7627,57.1454,72.649,49.4093a11.2451,11.2451,0,0,1-3.4812,5.7581l6.5833,7.5165a2.11,2.11,0,0,0,2.1508.6427l19.8513-5.5107a.3524.3524,0,0,0,.0095-.67Z"/><path class="cls-8" d="M99.479,37.34,72.2937,42.8966a11.2952,11.2952,0,0,1,.3544,6.52l11.0387,3.4125a2.1107,2.1107,0,0,0,2.1346-.5434L99.8009,37.93a.3515.3515,0,0,0-.3219-.59Z"/><path class="cls-9" d="M92.0619,20.4763,67.9243,37.3591a11.28,11.28,0,0,1,4.3637,5.5223l12.8429-2.6026,7.461-19.388a.3514.3514,0,0,0-.53-.4145Z"/><path class="cls-10" d="M82.2389,24.4914,76.4942,3.05a.3515.3515,0,0,0-.6686-.0277L64.1431,35.7565a11.2094,11.2094,0,0,1,3.77,1.5921L78.95,29.6593,81.7843,26.43A2.11,2.11,0,0,0,82.2389,24.4914Z"/><path class="cls-11" d="M272.6942,62.2455c-.1346.0879-.1136.2435-.1556.3687a3.16,3.16,0,0,1-3.6513,2.1823,2.712,2.712,0,0,1-1.4326-.851c-.0955-.0955-.1824-.2024-.341-.382v.5282c0,1.3753-.0067,2.7506.0048,4.1259,0,.2626-.06.3524-.3381.3514-.9961,0-.9961.0086-.9961-.998q0-4.6861-.0067-9.3722c0-.3323.0563-.4651.4307-.4517.8835.03.8844.0086.9054.8978a1.354,1.354,0,0,0,.0143.1413c.0774.0344.1013-.0239.128-.0592a2.9684,2.9684,0,0,1,5.0486.5272c.149.2923.2617.6027.3906.9035Zm-5.6559-1.0324c.0067.1279.0086.2569.02.382a2.207,2.207,0,0,0,2.0057,2.0811,2.14,2.14,0,0,0,2.28-1.7191,3.264,3.264,0,0,0,.0229-1.4508,2.1883,2.1883,0,0,0-1.9694-1.7755,2.0877,2.0877,0,0,0-2.1394,1.3161,2.6885,2.6885,0,0,0-.22,1.1671Z"/><path class="cls-11" d="M215.0115,85.4089c.0516,0,.0736-.0248.0659-.0754h1.489c-.0067.0516.0153.0764.0668.0764Z"/><path class="cls-11" d="M132.45,34.151c-.1385.0955-.1528.2321-.2006.3448q-2.5548,6.1125-5.0963,12.2249c-.1031.2484-.2139.3611-.4975.3477-.54-.0258-1.0821-.0239-1.6237,0a.4443.4443,0,0,1-.5014-.3429q-2.3971-6.05-4.8117-12.0941a1.2635,1.2635,0,0,0-.2769-.4642q-.2064,1.4184-.4126,2.8357-.6379,4.3875-1.2722,8.7752c-.05.3438-.1012.6867-.1451,1.0315-.023.1814-.1.2569-.299.2559q-2.6445-.0114-5.2892,0c-.2464,0-.2684-.09-.2321-.3q1.297-7.5785,2.5845-15.16c.3744-2.2033.75-4.4076,1.104-6.6148.0564-.3467.1767-.4441.532-.4394,1.66.023,3.32.0172,4.98,0a.4126.4126,0,0,1,.4632.3238q2.1288,5.6349,4.2778,11.27c.041.107.084.213.1337.3381.1518-.0821.1623-.2321.211-.3524q2.2665-5.6254,4.5223-11.2565a.4207.4207,0,0,1,.4709-.3209q2.5673.0181,5.1345,0c.275,0,.3744.0716.4145.3428q.5386,3.6819,1.0992,7.3589.7154,4.7258,1.4327,9.4552c.2578,1.702.5109,3.4058.7745,5.1068.0306.191-.0191.2483-.2091.2483q-2.6829-.0076-5.3666,0c-.2,0-.255-.0716-.2789-.2645q-.573-4.5729-1.1527-9.1439-.2007-1.5873-.4021-3.1747A2.9666,2.9666,0,0,0,132.45,34.151Z"/><path class="cls-11" d="M184.12,38.36v.4776c0,2.6121-.0066,5.2242.0077,7.8316,0,.3285-.0955.4011-.4078.3982q-2.5482-.0228-5.0963,0c-.277,0-.3706-.0544-.3706-.3562q.0144-10.9041,0-21.8082c0-.2617.0525-.3486.3333-.3476,2.9722.0114,5.9454-.0058,8.9176.0162a8.5552,8.5552,0,0,1,3.9425.9226,5.9987,5.9987,0,0,1,3.3265,4.9225,7.6744,7.6744,0,0,1-.3877,3.6847,5.6936,5.6936,0,0,1-4.1164,3.6617c-.0745.0191-.15.0363-.2244.0564a.8179.8179,0,0,0-.1118.0563l6.9816,9.1057c-.0955.1347-.2187.0764-.3209.0764q-3.2806,0-6.5623.0086a.5379.5379,0,0,1-.5244-.2865q-2.529-3.9894-5.0771-7.9663C184.3517,38.6914,184.2648,38.5721,184.12,38.36Zm0-6.5155V34.35c0,.1461-.05.3161.2073.3123a8.4025,8.4025,0,0,0,2.7-.3372,2.3969,2.3969,0,0,0,1.7191-2.4965,2.3942,2.3942,0,0,0-1.75-2.4756,8.2455,8.2455,0,0,0-2.5873-.3152c-.2416,0-.3008.0688-.297.3028C184.1282,30.175,184.12,31.0145,184.12,31.8445Z"/><path class="cls-11" d="M224.8412,24.5659c.955,0,1.9044.0067,2.8566-.0057a.3736.3736,0,0,1,.42.2817q4.1069,10.94,8.2308,21.8712c.1213.3219.0287.3582-.2636.3563q-2.7591-.0144-5.5193,0a.3907.3907,0,0,1-.4441-.3028c-.3935-1.0993-.8157-2.1881-1.2168-3.2845-.0793-.2149-.1681-.3247-.43-.3228q-3.7248.0171-7.45,0a.407.407,0,0,0-.4422.3132c-.4259,1.1012-.8748,2.1967-1.295,3.297a.4.4,0,0,1-.4489.3008q-2.7612-.0143-5.5194,0c-.2865,0-.3534-.0506-.2416-.34q4.2233-10.9566,8.4275-21.9209a.3485.3485,0,0,1,.4012-.2473C222.8861,24.5707,223.8641,24.5659,224.8412,24.5659Zm-.065,6.8622c-.8385,2.4832-1.6379,4.8566-2.4478,7.2586,1.5462,0,3.0237-.01,4.5022.0067.3419,0,.3438-.1.2474-.3716-.2531-.7134-.4776-1.4326-.7192-2.1537-.5148-1.5415-1.0306-3.0849-1.5826-4.74Z"/><path class="cls-11" d="M238.3077,35.8V24.9556c0-.2713.0268-.4.362-.3983,3.01.0153,6.017,0,9.0322.0153a9.5992,9.5992,0,0,1,3.6531.6809,6.1161,6.1161,0,0,1,3.8977,4.7573,10.8412,10.8412,0,0,1-.1,4.5929,6.0233,6.0233,0,0,1-5.1345,4.7888,12.9965,12.9965,0,0,1-2.4555.2177c-1.0038,0-2.0057.0124-3.01-.0067-.3114-.0057-.4136.0659-.4107.3973.0153,2.212,0,4.4249.0153,6.6378,0,.3247-.0573.4374-.4145.4327-1.6857-.021-3.3714-.0172-5.0571,0-.31,0-.3821-.09-.3821-.3878Q238.3164,41.2435,238.3077,35.8Zm5.8375-3.72v2.508c0,.1805-.0048.3181.253.3162a25.3,25.3,0,0,0,2.5787-.0831,2.3,2.3,0,0,0,2.298-1.8586,4.5038,4.5038,0,0,0-.0077-1.7258,2.1771,2.1771,0,0,0-1.8232-1.7984,18.2139,18.2139,0,0,0-3.0773-.1643c-.2454,0-.2244.14-.2235.2989q.0039,1.25.0019,2.5071Z"/><path class="cls-11" d="M198.5671,35.8052q0-5.4238-.0077-10.8458c0-.3162.07-.4031.3954-.4021q6.017.0182,12.0435,0c.2865,0,.3945.0506.39.3706-.0191,1.402-.0162,2.8041,0,4.2023,0,.2961-.0649.3877-.3763.382-2.0715-.0153-4.1431,0-6.2147-.0162-.3094,0-.382.0869-.382.382.0181,1.0028.022,2.0057,0,3.01-.0086.3362.1041.3935.4117.3916,1.9426-.0143,3.8861,0,5.8259-.0143.2865,0,.3639.0725.36.361q-.0229,2.1222,0,4.2453c0,.2951-.0812.3581-.3639.3562-1.956-.0124-3.9158,0-5.867-.0124-.2722,0-.3763.043-.3706.35.022,1.0668.0191,2.1355,0,3.2033,0,.2817.09.3343.35.3324,2.0715-.01,4.1431,0,6.2146-.0125.3181,0,.4088.0784.405.4q-.0268,2.1012,0,4.2071c0,.2942-.0793.363-.3658.362q-6.0409-.0142-12.0827,0c-.3056,0-.382-.084-.382-.382Q198.5738,41.2473,198.5671,35.8052Z"/><path class="cls-11" d="M155.2248,38.3027q0-4.2075.0076-8.4151c0-.3095-.0869-.3821-.382-.3821-1.3772.0163-2.7535,0-4.1307.0134-.2674,0-.3438-.063-.3419-.3371q.023-2.1423,0-4.2845c0-.2693.0649-.34.3371-.34q7.4325.0124,14.8629,0c.277,0,.3381.0783.3352.3438q-.02,2.1413,0,4.2835c0,.2789-.083.3362-.3457.3343-1.3763-.0134-2.7535,0-4.13-.0143-.3133,0-.3821.0955-.3821.3877.0086,5.5719,0,11.1429.0153,16.7138,0,.3687-.0831.4719-.4613.4671q-2.47-.0344-4.9406,0c-.3906.0057-.4546-.1175-.4527-.4776C155.2315,43.8355,155.2248,41.0686,155.2248,38.3027Z"/><path class="cls-11" d="M148.2938,35.8463c0,3.6025-.0057,7.2051.0086,10.8066,0,.3429-.0859.4241-.4231.42q-2.527-.0268-5.0561,0c-.33,0-.3964-.0955-.3955-.4107q.0125-10.8449,0-21.69c0-.3533.0956-.4173.4279-.4135q2.5272.0238,5.0562,0c.3314,0,.3925.0955.3916.4059C148.289,28.5915,148.2938,32.2189,148.2938,35.8463Z"/><path class="cls-11" d="M216.5664,85.3325h-1.489a2.9624,2.9624,0,0,1-2.6-2.81c0-.1748.0535-.2321.2168-.2206.1022.0067.2053,0,.3085,0a1.7988,1.7988,0,0,1,.6867.0238c.2206.0956.12.41.191.6208a1.7433,1.7433,0,0,0,1.0792,1.1309,2.5275,2.5275,0,0,0,1.702.0315,1.6854,1.6854,0,0,0,1.1031-1.5759,15.6677,15.6677,0,0,0,.0468-2.0343c-.0554.0086-.0878.0048-.0955.0172a3.0065,3.0065,0,0,1-5.2691-.936,4.0042,4.0042,0,0,1,.573-4.0438,2.8875,2.8875,0,0,1,4.6216.0287c.0287.0391.0659.0726.1719.191,0-.3419.01-.6017,0-.86-.0105-.2034.0325-.3123.27-.2961a6.1831,6.1831,0,0,0,.81,0c.2149-.0143.255.0793.2531.2694-.022,2.4182.0392,4.8374-.0353,7.2585a4.3343,4.3343,0,0,1-.3888,1.6791A2.5466,2.5466,0,0,1,216.5664,85.3325Zm1.317-7.3474a3.0136,3.0136,0,0,0-.0171-.36,2.2029,2.2029,0,0,0-1.8949-2.0258,2.1171,2.1171,0,0,0-2.3495,1.5559,3.0384,3.0384,0,0,0-.0678,1.5586,2.1686,2.1686,0,0,0,2.7343,1.7431A2.3654,2.3654,0,0,0,217.8834,77.9851Z"/><path class="cls-11" d="M132.1607,58.9448c0-.3821.0067-.6686,0-.9608-.0057-.1643.0449-.2455.2168-.2235a.5127.5127,0,0,0,.0764,0c1.0267-.0268,1.0277-.0268,1.0267.9923v5.8259a7.2731,7.2731,0,0,1-.1089,1.382,2.81,2.81,0,0,1-2.763,2.5787,3.2569,3.2569,0,0,1-3.507-1.7525,3.4353,3.4353,0,0,1-.2722-1.1175c-.0144-.1652.041-.2406.213-.2263.1021.0076.2053,0,.3084,0a1.8213,1.8213,0,0,1,.6867.0229c.2245.0955.1118.4088.1834.62a1.7449,1.7449,0,0,0,.93,1.0764,2.5037,2.5037,0,0,0,1.9531.064,1.5968,1.5968,0,0,0,.9722-1.3371,14.2214,14.2214,0,0,0,.0889-2.2664c-.0554.0153-.086.0143-.0955.0277a2.9958,2.9958,0,0,1-5.1574-.6093,4.1629,4.1629,0,0,1,.5931-4.5108A2.87,2.87,0,0,1,132,58.7308Zm.0716,2.2377a2.4968,2.4968,0,0,0-.0812-.74,2.1691,2.1691,0,0,0-1.8662-1.6943,2.0235,2.0235,0,0,0-2.147,1.1623,2.7593,2.7593,0,0,0-.0181,2.5558,1.9939,1.9939,0,0,0,1.9732,1.2168,2.0716,2.0716,0,0,0,1.96-1.4221A2.6223,2.6223,0,0,0,132.2323,61.1825Z"/><path class="cls-11" d="M119.1048,64.6332c-.5377,0-1.0114-.01-1.4832,0-.2206.0057-.277-.1624-.3668-.2865L114.39,60.24c-.0716-.1031-.1175-.234-.2473-.2865-.3238-.127-.5234.0115-.5234.3639,0,1.3113-.0115,2.6226.0086,3.934,0,.33-.0955.4269-.41.3906a3.3609,3.3609,0,0,0-.6933,0c-.2512.0239-.2952-.0831-.2952-.3085q.01-5.2462,0-10.4925c0-.1394-.0315-.2865.1977-.2865a16.5869,16.5869,0,0,1,3.5338.191,3.1039,3.1039,0,0,1-.0172,6.0065c-.3448.0755-.2426.1691-.11.35q1.5549,2.1336,3.103,4.273A2.0081,2.0081,0,0,1,119.1048,64.6332Zm-5.485-7.85V58.52c0,.1424-.0258.28.2015.277a5.7521,5.7521,0,0,0,2.0153-.254,1.7428,1.7428,0,0,0,1.1623-1.7755,1.6688,1.6688,0,0,0-1.1461-1.6962,6.03,6.03,0,0,0-2.0114-.2865c-.2111-.0077-.2216.106-.2206.2645.0038.574.0009,1.1528.0009,1.7316Z"/><path class="cls-11" d="M111.1844,81.4731l5.2816-11.5383c1.7745,3.8719,3.5213,7.6864,5.2863,11.5383-.4642,0-.8749-.0125-1.2836,0-.21.01-.2541-.1242-.3181-.2656-.339-.7478-.6886-1.4918-1.0152-2.2453a.3968.3968,0,0,0-.4288-.2761q-2.2387.0153-4.4784,0a.4.4,0,0,0-.4317.2789c-.3285.7526-.6819,1.4947-1.0095,2.2483a.359.359,0,0,1-.3983.2617C112.0086,81.4587,111.6266,81.4731,111.1844,81.4731Zm7.2519-4.0285c-.6514-1.4833-1.2741-2.9035-1.9-4.3218-.0133-.0305-.0544-.0487-.1022-.09q-.9273,2.1115-1.8461,4.1956c-.0831.191,0,.2178.1623.2178C115.9588,77.4436,117.167,77.4446,118.4363,77.4446Z"/><path class="cls-11" d="M235.33,75.4017c.1051-.1147.1786-.1987.2559-.28a2.0689,2.0689,0,0,1,3.28.1605c.2149.2865.2865.2559.4918,0a2.47,2.47,0,0,1,2.7621-.73,2.1406,2.1406,0,0,1,1.296,1.785,4.8643,4.8643,0,0,1,.0812.8816c.0086,1.3122,0,2.6245.01,3.9368,0,.2416-.0487.3486-.3133.3257-.318-.0277-.7421.1021-.9321-.0583-.2235-.191-.0659-.6256-.0755-.9551-.0372-1.2072.0716-2.4192-.064-3.6235-.0888-.7966-.4527-1.2034-1.0687-1.2531a1.32,1.32,0,0,0-1.51,1.0735,4.2859,4.2859,0,0,0-.1461,1.2206c0,1.0678-.0172,2.1355.0048,3.2033.0067.3324-.0955.4241-.4107.3916-.2923-.0306-.6886.0955-.86-.0573-.2015-.1786-.0582-.5826-.0649-.8882-.022-1.1318.0363-2.2645-.0372-3.3953a3.259,3.259,0,0,0-.0956-.6084,1.072,1.072,0,0,0-.9035-.9293,1.3072,1.3072,0,0,0-1.4.5979,2.38,2.38,0,0,0-.3161,1.1c-.09,1.2722-.0315,2.5463-.0354,3.82,0,.2866-.063.3687-.3591.3639-.9741-.0133-.9751,0-.9751-.9789,0-1.8519.0057-3.7048-.0057-5.5576,0-.2626.0582-.39.3371-.3429a.7691.7691,0,0,0,.1156,0,1.84,1.84,0,0,1,.7965.0363C235.3976,74.7551,235.2018,75.1142,235.33,75.4017Z"/><path class="cls-11" d="M170.3532,59.0651c0-1.7239.0048-3.4478-.0058-5.1708,0-.2636.0631-.3514.34-.3495q2.6427.019,5.2863,0c.2426,0,.3343.0506.3352.3171.0058.9608.0172.9608-.955.9608-1.0926,0-2.1862.0076-3.28-.0067-.2674,0-.35.07-.3448.3419q.0258,1.2148,0,2.4307c-.0066.2865.0956.3361.3544.3342,1.2339-.0124,2.4688,0,3.7038-.0114.2865,0,.4.043.3925.3677-.021.89,0,.89-.9064.89-1.0506,0-2.11.0134-3.1641-.0076-.3181-.0058-.3821.1022-.3821.3944q.023,1.6977,0,3.3953c0,.3114.0669.4183.3983.4135,1.2731-.02,2.5472,0,3.82-.0152.2923,0,.37.0821.3658.37-.01.9092,0,.9092-.893.9092-1.57,0-3.1393-.0086-4.7085.0077-.2951,0-.363-.0812-.361-.3649C170.3589,62.5368,170.3532,60.8005,170.3532,59.0651Z"/><path class="cls-11" d="M202.3348,63.5606v4.2616c0,.744,0,.744-.744.744h-.0774c-.5606-.0067-.4985.0707-.4985-.4862q0-4.96-.0086-9.92c0-.3123.0611-.4441.3954-.404.2865.0344.6686-.086.86.0592.2063.1576.0449.553.0726.8433l.0143.1423c.0955.02.1165-.0573.1518-.0955a2.91,2.91,0,0,1,4.4889-.191,4.1386,4.1386,0,0,1-.148,5.5395,2.941,2.941,0,0,1-4.2645-.2063C202.5239,63.7736,202.4647,63.7087,202.3348,63.5606Zm4.3341-2.4717c-.02-.1452-.0372-.3763-.084-.6017a2.1815,2.1815,0,0,0-1.9856-1.7564,2.0746,2.0746,0,0,0-2.1231,1.3448,2.8564,2.8564,0,0,0,.04,2.3561,1.9889,1.9889,0,0,0,1.91,1.2531,2.0642,2.0642,0,0,0,1.9675-1.2416A3.1962,3.1962,0,0,0,206.6689,61.0889Z"/><path class="cls-11" d="M193.1231,75.9432c0-1.7192.0067-3.4459-.0067-5.1689,0-.2865.064-.3772.3611-.3677a18.0918,18.0918,0,0,1,3.19.1719,2.7634,2.7634,0,0,1,2.509,2.9216,2.9415,2.9415,0,0,1-2.4517,3.1718,6.565,6.565,0,0,1-1.8767.16c-.3018-.0172-.36.0888-.3572.3677.0143,1.3113,0,2.6236.0124,3.9349,0,.2636-.0582.3677-.3362.3438-.3314-.0286-.764.1041-.9722-.062s-.0669-.6275-.0688-.9551C193.1174,78.9526,193.1231,77.4484,193.1231,75.9432Zm1.3744-2.318v1.6953c0,.1365-.0354.2865.1958.2865a5.3944,5.3944,0,0,0,2.1193-.2961,1.7192,1.7192,0,0,0,1.0611-1.829,1.63,1.63,0,0,0-1.1605-1.5949,6.098,6.098,0,0,0-2.0152-.2417c-.2225,0-.2005.1433-.2005.2866Z"/><path class="cls-11" d="M255.7942,58.685a2.4831,2.4831,0,0,1,2.5261-1.106,2.0548,2.0548,0,0,1,1.9322,1.88,5.1963,5.1963,0,0,1,.08.8424c.0086,1.3371,0,2.6742.0115,4.0113,0,.2512-.065.3228-.32.3237-1.0038,0-.9923.0115-1.0066-.9856-.0172-1.233.0831-2.47-.0554-3.699-.0956-.8366-.4117-1.1213-1.2273-1.2187a1.5029,1.5029,0,0,0-1.7259.915,4.1054,4.1054,0,0,0-.2091,1.5186q-.0221,1.5634,0,3.125c0,.2674-.0678.3467-.341.3448-.9837,0-.9837.0057-.9837-.9685q0-5.69-.0067-11.3807c0-.3142.0659-.4145.3954-.4068.9293.021.93,0,.93.9426Z"/><path class="cls-11" d="M230.9584,75.64c0-.2655.0086-.532,0-.7984-.0076-.1815.0545-.2359.2407-.2455,1.0907-.0554,1.0907-.0611,1.0907,1.0181,0,1.84-.0058,3.68.0057,5.5194,0,.2674-.0659.3725-.341.3429-.317-.0354-.721.128-.9321-.0631s0-.6045-.1-.935a.5.5,0,0,0-.0955.0745,2.9628,2.9628,0,0,1-4.7907-.1365,4.2251,4.2251,0,0,1,.085-4.8375,2.92,2.92,0,0,1,4.64-.0688l.1194.1443Zm.0707,2.3715c-.0105-.1423-.0162-.2971-.0325-.45a2.1989,2.1989,0,0,0-1.7975-1.956,2.1087,2.1087,0,0,0-2.37,1.3658,2.9827,2.9827,0,0,0-.1451,1.6685,2.213,2.213,0,0,0,2.0362,1.8958,2.1535,2.1535,0,0,0,2.2272-1.7468A4.4131,4.4131,0,0,0,231.0291,78.0119Z"/><path class="cls-11" d="M162.8167,75.7445v-.47c0-.6685,0-.6685.6915-.6685.6265,0,.6265,0,.6265.62,0,1.956,0,3.9158.0057,5.867,0,.28-.0391.4365-.3667.3878-.3114-.0468-.7326.1385-.914-.0869-.148-.1853-.03-.5845-.03-.9895-.1461.1614-.2292.2484-.3066.3391a2.9283,2.9283,0,0,1-4.1221.2368,4.1024,4.1024,0,0,1-.2416-5.6139,2.9047,2.9047,0,0,1,4.4382.1309C162.6476,75.5516,162.6983,75.6089,162.8167,75.7445Zm.0659,2.2989c0-.1022.0067-.2054,0-.3075a2.2142,2.2142,0,0,0-1.91-2.1365A2.1317,2.1317,0,0,0,158.6,77.223a2.8548,2.8548,0,0,0,.128,1.9942,2.1241,2.1241,0,0,0,3.2769.8662,2.44,2.44,0,0,0,.8777-2.04Z"/><path class="cls-11" d="M159.6563,58.9027c0-.3533.0125-.6179,0-.8805-.0124-.2082.0679-.2694.2656-.26a7.1669,7.1669,0,0,0,.8108,0c.2159-.0134.2512.084.25.2722q-.0066,3.1652,0,6.33c0,.2283-.0821.2923-.2922.2732-.3305-.03-.7469.1346-.9685-.0678s-.02-.61-.0821-.9312c-.1385.0124-.1671.1442-.2359.2225a2.94,2.94,0,0,1-4.4487-.022,4.1569,4.1569,0,0,1-.2483-4.9511,2.9248,2.9248,0,0,1,4.7753-.191C159.52,58.7385,159.5589,58.7833,159.6563,58.9027Zm.0631,2.2836c0-.1156.0076-.2321,0-.3467a2.2,2.2,0,0,0-1.84-2.0744,2.08,2.08,0,0,0-2.3629,1.4116,2.77,2.77,0,0,0,.1328,2.3466,2.0089,2.0089,0,0,0,1.93,1.1652,2.0711,2.0711,0,0,0,1.955-1.3743,2.4474,2.4474,0,0,0,.1853-1.1328Z"/><path class="cls-11" d="M148.9471,78.2573c-.7459,0-1.4918.0134-2.2368-.0067-.2951-.0086-.3935.0745-.3391.3668a2.13,2.13,0,0,0,1.4613,1.8232,1.98,1.98,0,0,0,2.2435-.6934c.4374-.5272.4451-.52,1.0506-.1776.4976.2808.4976.2808.1547.7345a3.6392,3.6392,0,0,1-3.9712,1.2473,3.3445,3.3445,0,0,1-2.2712-3.2043,4.0619,4.0619,0,0,1,.7192-2.7363,3.1867,3.1867,0,0,1,3.3857-1.1289,2.84,2.84,0,0,1,2.3075,2.3992c.08.3486.085.7134.1366,1.0687.0334.2349-.044.3171-.2865.3123C150.5163,78.2487,149.7312,78.2573,148.9471,78.2573Zm-.63-1c.5387,0,1.0774-.0144,1.6151.0057.3113.0115.3333-.1079.2578-.3639a1.81,1.81,0,0,0-1.8633-1.36,2.002,2.002,0,0,0-1.8567,1.4689c-.0449.191,0,.254.191.2521.554-.0076,1.1051-.0028,1.6561-.0028Z"/><path class="cls-11" d="M138.5664,78.2573c-.7583,0-1.5176.0182-2.275-.0086-.3381-.0114-.3944.1175-.3381.4021A2.1183,2.1183,0,0,0,137.44,80.45a1.9952,1.9952,0,0,0,2.2587-.7574c.382-.4775.382-.47.9322-.1614.5816.3305.5816.3305.1595.86a3.6585,3.6585,0,0,1-3.9731,1.14,3.3545,3.3545,0,0,1-2.1967-3.1422,4.1015,4.1015,0,0,1,.7144-2.7754A3.1873,3.1873,0,0,1,138.72,74.48a2.84,2.84,0,0,1,2.3122,2.3963c.0745.3228.0812.6619.1327.9914.0459.2865-.0334.4068-.3572.3963C140.0592,78.24,139.3123,78.2573,138.5664,78.2573Zm-.6552-1c.5253,0,1.0506-.0163,1.5759.0057.3285.0143.3581-.1041.2731-.382a1.8026,1.8026,0,0,0-1.8375-1.3429,1.9867,1.9867,0,0,0-1.8691,1.45c-.0573.2111-.0115.2751.2034.2713.5511-.0077,1.1022-.0019,1.6542-.0019Z"/><path class="cls-11" d="M217.5625,61.405c-.7717,0-1.5434.0077-2.3151-.0047-.2483,0-.3.07-.2684.3123a2.2244,2.2244,0,0,0,1.4823,1.8939,2.0518,2.0518,0,0,0,2.2874-.7908c.3649-.4508.3649-.4508.85-.1758.6686.3821.6686.3821.16.9828a3.6787,3.6787,0,0,1-3.8977,1.063,3.3749,3.3749,0,0,1-2.2215-3.1728,4.1344,4.1344,0,0,1,.6943-2.7105,3.2836,3.2836,0,0,1,3.5195-1.1537,2.9372,2.9372,0,0,1,2.2454,2.56c.2235,1.1929.2072,1.1958-.9923,1.1958Zm-.6112-1h1.6561c.1843,0,.2779-.0058.22-.25a1.8037,1.8037,0,0,0-1.8233-1.4622,1.9731,1.9731,0,0,0-1.9149,1.44c-.0449.191-.0229.2789.2053.2741.5521-.01,1.1051-.0019,1.6571-.0019Z"/><path class="cls-11" d="M123.2756,61.4041c-.7583,0-1.5176.0114-2.2759-.0058-.2693-.0057-.319.0812-.2865.3324A2.2166,2.2166,0,0,0,122.1725,63.6a2.0435,2.0435,0,0,0,2.2693-.7364c.4059-.49.4059-.49.9665-.1738s.5645.319.1681.8271a3.667,3.667,0,0,1-3.9263,1.1891,3.39,3.39,0,0,1-2.2826-3.2473,4.5332,4.5332,0,0,1,.2082-1.6733,3.2719,3.2719,0,0,1,5.84-.76,4.3486,4.3486,0,0,1,.5062,2.1508c0,.2426-.127.2292-.2865.2292C124.8448,61.4031,124.06,61.4041,123.2756,61.4041Zm-.5778-.999c.5387,0,1.0783-.0058,1.617,0,.2063,0,.3027-.0144.2359-.2732a1.8033,1.8033,0,0,0-1.8032-1.44,1.9645,1.9645,0,0,0-1.9293,1.4211c-.0554.2111-.02.3.2235.2932C121.5938,60.3955,122.1458,60.4051,122.6978,60.4051Z"/><path class="cls-11" d="M197.3474,61.4041c-.7583,0-1.5176.0133-2.275-.0058-.2922-.0076-.3371.0956-.3046.3563a2.1731,2.1731,0,0,0,1.4794,1.8481,2.0246,2.0246,0,0,0,2.2387-.725c.41-.51.4173-.5042.9942-.1776.5425.3075.5425.3075.1576.8042a3.6488,3.6488,0,0,1-3.84,1.2244,3.2885,3.2885,0,0,1-2.3418-2.9436,4.7572,4.7572,0,0,1,.2072-2.0916,3.1236,3.1236,0,0,1,3.3657-2.1374,2.9812,2.9812,0,0,1,2.8423,2.5347c.2713,1.3161.2713,1.3161-1.0506,1.3161Zm-.6141-.999c.552,0,1.1041-.0048,1.6561,0,.191,0,.277-.022.2225-.255a1.81,1.81,0,0,0-1.8289-1.4575,1.9668,1.9668,0,0,0-1.91,1.44c-.0458.191-.0162.2789.21.2741.5463-.01,1.0965-.0019,1.65-.0019Z"/><path class="cls-11" d="M232.4111,61.4041c-.7583,0-1.5176.0133-2.275-.0058-.2865-.0076-.3505.0889-.3066.3534a2.1326,2.1326,0,0,0,1.44,1.8366,2.0014,2.0014,0,0,0,2.274-.71c.4212-.5043.4212-.5043.9942-.18.5454.3084.5454.3084.1615.8032a3.6394,3.6394,0,0,1-4.0629,1.1527,3.4383,3.4383,0,0,1-2.16-3.486,3.9309,3.9309,0,0,1,.7459-2.423,3.2074,3.2074,0,0,1,3.4669-1.0916,2.8614,2.8614,0,0,1,2.2377,2.47c.2608,1.2769.2455,1.28-1.05,1.28Zm-.6447-.999c.5521,0,1.1041-.0105,1.6552.0057.254.0067.3037-.0592.2349-.3066a1.7952,1.7952,0,0,0-1.8242-1.4087,1.977,1.977,0,0,0-1.8968,1.4144c-.0735.2579.0143.3066.2531.3C230.7139,60.3955,231.24,60.4051,231.7664,60.4051Z"/><path class="cls-11" d="M142,57.5456a3.6293,3.6293,0,0,1,3.6563,3.602q0,.04,0,.0807a3.6662,3.6662,0,1,1-3.7042-3.6831Zm-2.361,3.6417a2.3489,2.3489,0,1,0,2.3428-2.3686A2.3883,2.3883,0,0,0,139.6389,61.1873Z"/><path class="cls-11" d="M204.1657,78.051a3.6713,3.6713,0,0,1,7.3426-.0105,3.6713,3.6713,0,0,1-7.3426.0105Zm3.6923-2.381a2.3609,2.3609,0,0,0-2.3628,2.3428,2.4077,2.4077,0,0,0,2.3218,2.4393,2.3829,2.3829,0,0,0,2.359-2.36A2.3484,2.3484,0,0,0,207.858,75.67Z"/><path class="cls-11" d="M176.1505,81.7061a3.6559,3.6559,0,0,1-.0358-7.3114q.04,0,.08,0a3.6557,3.6557,0,1,1-.0439,7.3111Zm.0678-6.0361a2.3618,2.3618,0,0,0-2.3781,2.3275,2.3434,2.3434,0,1,0,4.6837.0669A2.3524,2.3524,0,0,0,176.2183,75.67Z"/><path class="cls-11" d="M148.2346,58.6019a2.5476,2.5476,0,0,1,2.8385-.96,2.15,2.15,0,0,1,1.6045,2.234c.0506,1.5032.02,3.0075.0315,4.5117,0,.1805-.0525.2684-.2406.2426a.7137.7137,0,0,0-.0774,0c-1.0038.0191-1.0038.0191-1.0038-.98V60.68c0-.1155,0-.2311-.0057-.3467-.0468-1.2864-.5731-1.7993-2.0353-1.5415a1.3371,1.3371,0,0,0-1.0506,1.1566,6.3068,6.3068,0,0,0-.1194,1.4174c0,.977-.0105,1.9541,0,2.9311,0,.276-.084.341-.3486.34-.9875,0-.9875.0048-.9875-.9684,0-1.851.0067-3.7019-.0077-5.5529,0-.2865.0765-.3877.3658-.36s.6352-.0774.873.041C148.3473,57.9276,148.0923,58.3144,148.2346,58.6019Z"/><path class="cls-11" d="M222.6827,58.6267a2.5629,2.5629,0,0,1,2.913-.9656,2.1165,2.1165,0,0,1,1.5453,2.0773c.1184,1.361.0334,2.7258.0525,4.0887.0105.8042,0,.8089-.7984.8032-.59-.0048-.5225.1022-.5272-.5339-.0115-1.3247.0066-2.65-.0382-3.974-.0325-.9494-.3983-1.3066-1.2646-1.3878a1.4686,1.4686,0,0,0-1.76,1.127,4.1576,4.1576,0,0,0-.1451,1.105c0,1.1194-.0086,2.24,0,3.3581,0,.2254-.044.31-.2942.3133-1.03.0143-1.03.0238-1.03-1.001,0-1.84.0067-3.68-.0067-5.5193,0-.2866.0659-.4107.3582-.3563a.5262.5262,0,0,0,.0774,0c.2807.0086.6255-.0783.8251.0535S222.6044,58.3154,222.6827,58.6267Z"/><path class="cls-11" d="M179.2211,58.6162a2.5487,2.5487,0,0,1,2.8365-.9789,2.0731,2.0731,0,0,1,1.5921,1.997c.1538,1.59.0363,3.1881.0688,4.783,0,.1395-.0411.2235-.1968.2111a.6954.6954,0,0,0-.0764,0c-1.0563.0468-1.05.0468-1.0572-1.0105,0-1.1709.0086-2.3428-.0373-3.5118-.0363-.94-.4059-1.2979-1.2769-1.3762a1.4664,1.4664,0,0,0-1.75,1.1461,4.1883,4.1883,0,0,0-.1423,1.105c0,1.1069-.0124,2.2138,0,3.32,0,.2789-.0841.3391-.3477.3381-.978,0-.978.0048-.978-.9761,0-1.8528.0058-3.7057-.0057-5.5576,0-.2588.0506-.3934.3324-.3428a.2706.2706,0,0,0,.0382,0c.296,0,.6466-.0879.872.0391S179.1036,58.3192,179.2211,58.6162Z"/><path class="cls-11" d="M182.3785,75.5287a2.52,2.52,0,0,1,2.5787-1.0936,1.9672,1.9672,0,0,1,1.7478,1.4126,3.89,3.89,0,0,1,.2044,1.25c0,1.35,0,2.7009.0086,4.0523,0,.2359-.0382.3592-.3094.3267-.3267-.04-.7641.14-.9551-.0764-.1614-.1844-.0544-.6113-.0554-.93V77.6146c0-.1672,0-.3353-.0086-.5024a1.4781,1.4781,0,0,0-2.1823-1.4326,1.5941,1.5941,0,0,0-.9723,1.57c-.1251,1.2579-.0487,2.5195-.0525,3.78,0,.3286-.0516.4651-.4289.4518-.8987-.0316-.9-.01-.9-.9007V74.9461c0-.2569.0478-.3964.3324-.3467a.6762.6762,0,0,0,.1156,0C182.3518,74.6013,182.3518,74.6013,182.3785,75.5287Z"/><path class="cls-11" d="M241.9007,60.1539c0,.6809.0363,1.3638-.0067,2.0419-.1232,1.9369-1.4374,2.83-3.2864,2.6408a2.6047,2.6047,0,0,1-2.4832-2.85c-.0468-1.3228-.01-2.6475-.021-3.9722,0-.2082.0755-.2512.2684-.2588,1.0611-.04,1.0506-.0449,1.063,1.0019.0114,1.13-.0621,2.2635.0429,3.3914a1.53,1.53,0,0,0,2.1795,1.3811,1.4161,1.4161,0,0,0,.9093-1.4326c.0439-1.233.0286-2.467.0344-3.701,0-.6332,0-.6332.6208-.6332.7115,0,.7115,0,.7115.6963v1.6943Z"/><path class="cls-11" d="M127.5888,76.4838c-1.5559-1.0907-2.6962-1.11-3.6207-.085a2.5331,2.5331,0,0,0-.0955,3.2548,2.3116,2.3116,0,0,0,1.8346.8214A2.6046,2.6046,0,0,0,127.59,79.58v1.4956c0,.1634-.0955.2178-.212.28a3.8657,3.8657,0,0,1-4.0629-.49,3.4991,3.4991,0,0,1-1.1518-3.8566,3.5791,3.5791,0,0,1,3.0963-2.5787,4.0233,4.0233,0,0,1,2.0735.2866.3686.3686,0,0,1,.2607.4059C127.5754,75.564,127.5888,75.9986,127.5888,76.4838Z"/><path class="cls-11" d="M162.7517,58.2705c0-2.0057.0058-4.0113-.0066-6.017,0-.2865.0649-.3715.361-.3677.9723.01.9723,0,.9723.9818q0,5.6732.0076,11.3473c0,.3276-.063.44-.4183.4288-.9159-.0268-.9159-.0076-.9159-.9274Z"/><path class="cls-11" d="M133.8722,79.645v1.4756c0,.1509-.1032.1977-.2092.2407a3.8012,3.8012,0,0,1-4.0619-.5071,3.5714,3.5714,0,0,1-1.1337-3.9025A3.6575,3.6575,0,0,1,131.581,74.43a4.1447,4.1447,0,0,1,1.9665.2531.4237.4237,0,0,1,.3323.4776c-.0286.4193-.0076.8424-.0076,1.3552a2.5817,2.5817,0,0,0-2.4192-.8347,2.16,2.16,0,0,0-1.297.8443A2.5109,2.5109,0,0,0,130.28,79.78C131.2037,80.7281,132.4128,80.6909,133.8722,79.645Z"/><path class="cls-11" d="M250.8564,64.8748a2.6332,2.6332,0,0,1-2.28-1.276c-.1137-.191-.1261-.3228.1194-.3973a2.0878,2.0878,0,0,0,.2464-.1088c.5587-.2551.5587-.2551.97.191a1.2064,1.2064,0,0,0,1.5081.2359.8466.8466,0,0,0,.0477-1.4651c-.52-.3295-1.0792-.5941-1.6121-.9045a1.8908,1.8908,0,0,1-1.0315-1.1365,2.0057,2.0057,0,0,1,1.2531-2.3294,2.039,2.039,0,0,1,2.4832.8595c.0955.1681.0735.2483-.0955.32a1.8438,1.8438,0,0,0-.3391.1833c-.2865.1987-.5167.298-.8089-.0735a.7533.7533,0,0,0-1.18.0478c-.2569.3428-.1432.7277.31,1.0343a6.3968,6.3968,0,0,0,.9962.5c.2.09.3982.1814.5892.2865a1.872,1.872,0,0,1,1.127,2.1117,2.3121,2.3121,0,0,1-1.7191,1.8289C251.2337,64.8318,251.0284,64.85,250.8564,64.8748Z"/><path class="cls-11" d="M143.6684,75.1209q0,3.0084.0067,6.0169c0,.2675-.0612.3716-.3372.3391-.3152-.0373-.73.1327-.9264-.065s-.0573-.61-.0583-.9283q0-5.6889-.0095-11.3778c0-.298.0669-.4174.3763-.382s.6991-.1271.8892.064.0563.5854.0573.8891C143.6713,71.4954,143.6684,73.3081,143.6684,75.1209Z"/><path class="cls-11" d="M185.73,61.789c0-.81-.01-1.6237.0067-2.43.0057-.2761-.05-.4222-.3544-.3658-.3381.063-.4317-.1022-.382-.4079a1.0554,1.0554,0,0,0,0-.2693c-.0449-.382.0086-.6609.5072-.56.2349.0487.2292-.1279.2282-.2865,0-.6561.0115-1.3123-.0067-1.9684-.0076-.2712.0421-.382.35-.3734.9761.0143.9761,0,.9761.9789,0,.425.0153.85-.0057,1.2731-.0144.2866.0487.4461.37.3821a.1627.1627,0,0,1,.0382,0c.9952,0,.9971.01.8911,1.0229-.0172.1709-.0821.2254-.2388.211-.0506-.0047-.1031,0-.1547,0-.9006,0-.9006,0-.9006.8863,0,1.4661-.0086,2.9321.0067,4.3934,0,.2961-.085.3629-.3677.3591-.9551-.01-.9551,0-.9551-.9551Z"/><path class="cls-11" d="M166.0525,78.6527c0-.8357-.0105-1.6714.0057-2.5061.0058-.2588-.0764-.3534-.3228-.31-.3123.0544-.4556-.0554-.4011-.382a1.139,1.139,0,0,0,0-.3458c-.0554-.382.0544-.5845.4775-.5033.2254.044.2417-.0955.2407-.2722-.0076-.6809.01-1.3629-.01-2.0438-.0067-.2579.0754-.3334.3228-.3133.318.0258.7325-.0955.9312.0621.2129.169.0573.6007.0659.9168.0133.4623.0114.9255,0,1.3878,0,.191.0353.2989.25.2655a1.0511,1.0511,0,0,1,.1547,0c.9971,0,1.0229.0344.9016,1.0506-.0153.1213-.0382.1967-.1757.191a1.0524,1.0524,0,0,0-.1548,0c-.3151.0267-.7459-.1452-.9159.0707-.1585.2005-.0544.6131-.0554.9321,0,1.4393-.0066,2.8786.0048,4.3179,0,.2493-.06.3419-.3171.32-.318-.0268-.7306.0955-.9331-.0593-.2177-.169-.0621-.6-.0687-.9149C166.0429,79.8867,166.0525,79.27,166.0525,78.6527Z"/><path class="cls-11" d="M154.1761,75.6624a2.0591,2.0591,0,0,1,1.6638-1.2512c.4479-.0439,1.0123-.0238,1.1948.3324.1509.2961-.2866.7144-.447,1.0821-.0659.1452-.1461.0287-.2149,0a1.4316,1.4316,0,0,0-2.0792.9178,4.4409,4.4409,0,0,0-.16,1.3715c0,1.0153-.0086,2.03,0,3.0448,0,.2512-.0659.35-.3228.319-.3266-.0392-.764.1423-.9551-.08-.1614-.1911-.0582-.6113-.0592-.93q0-2.7563-.0057-5.5117c0-.2483.0315-.382.3266-.3572.3181.0305.7278-.0955.936.06C154.2821,74.8248,154.0778,75.2613,154.1761,75.6624Z"/><path class="cls-11" d="M245.18,58.7547a2.046,2.046,0,0,1,1.5167-1.1824,2.0064,2.0064,0,0,1,1.1967.191c.16.0726.2216.1576.1136.3219a2.7553,2.7553,0,0,0-.1394.2741,2.1612,2.1612,0,0,1-.3219.6074c-.191.1824-.361-.1089-.5654-.1356a1.4556,1.4556,0,0,0-1.7649,1.2091,5.1938,5.1938,0,0,0-.1118,1.2626c0,1.0029-.0086,2.0057,0,3.0076,0,.2531-.0716.3228-.3266.3237-1.0086,0-1.0086.0124-1.0086-.9837,0-1.8376.0058-3.6761-.0067-5.5136,0-.2952.065-.4279.3821-.3821s.7287-.1442.9092.0955c.1461.1911.03.5845.03.8873Z"/><path class="cls-11" d="M201.3444,75.6729a2.0754,2.0754,0,0,1,1.6762-1.2626h.0382c.4345-.0239.9952-.0067,1.1537.341.1385.3008-.2865.7172-.4546,1.083-.0688.1461-.149.02-.2159-.01a1.435,1.435,0,0,0-2.0782.9264,4.5922,4.5922,0,0,0-.1624,1.3725c-.0047,1.0018-.0143,2.0056.0058,3.0065.0066.2971-.085.3592-.3668.3553-.9675-.0114-.9675,0-.9675-.9827q0-2.7765-.0057-5.5519c0-.26.0535-.3744.3352-.3476.3181.03.7307-.0955.9331.0639S201.2508,75.2651,201.3444,75.6729Z"/><path class="cls-11" d="M190.4814,58.8941a2.1234,2.1234,0,0,1,1.54-1.3122,2.08,2.08,0,0,1,1.2416.1814c.191.0812.2177.1834.1088.3477a1.7344,1.7344,0,0,0-.1079.2034,2.41,2.41,0,0,1-.34.6428c-.191.1862-.382-.1032-.6027-.1271a1.431,1.431,0,0,0-1.6981,1.0984,4.345,4.345,0,0,0-.1566,1.2206c0,1.0506-.0086,2.11.0057,3.1651,0,.2531-.0687.3219-.3218.3228-1.0019,0-1.0019.01-1.0019-.9875V58.09c0-.2254.02-.3677.3028-.3334.3276.04.7726-.14.955.0745C190.5673,58.0269,190.4613,58.4577,190.4814,58.8941Z"/><path class="cls-11" d="M222.3026,75.692a2.0109,2.0109,0,0,1,2.6684-1.12c.2359.1012.341.2025.1681.4431a1.7754,1.7754,0,0,0-.1556.3095c-.1538.34-.2149.6428-.786.4059a1.3154,1.3154,0,0,0-1.7345.9207,3.5822,3.5822,0,0,0-.191,1.212c0,1.0935-.01,2.1861.0058,3.28,0,.2741-.0736.3658-.3429.3333-.3152-.0372-.7221.1337-.9264-.0678-.1863-.1843-.0526-.5864-.0535-.892q0-2.7765-.0086-5.5547c0-.278.0506-.3973.3533-.3649s.6992-.0955.8978.0583c.2149.1633.042.573.0735.8787A1.3755,1.3755,0,0,0,222.3026,75.692Z"/><path class="cls-11" d="M210.6765,58.7843a2.3032,2.3032,0,0,1,1.5978-1.21,2.0209,2.0209,0,0,1,1.1977.191c.191.0831.2082.1911.1041.3544a3.4386,3.4386,0,0,0-.1557.3085,1.9238,1.9238,0,0,1-.2865.54c-.1843.1738-.3505-.0955-.5425-.1251a1.4308,1.4308,0,0,0-1.7487,1.0658,3.67,3.67,0,0,0-.1567,1.063c0,1.0917-.01,2.1843,0,3.2759,0,.2866-.041.4012-.3677.3954-.9551-.0191-.9551,0-.9551-.955,0-1.8634.0058-3.7248-.0066-5.5882,0-.2722.0706-.3725.3409-.3352.3228.0449.7641-.1519.9436.0955C210.7977,58.0575,210.6765,58.4663,210.6765,58.7843Z"/><path class="cls-11" d="M263.7738,61.1644c0,1.0419-.0086,2.0839.0058,3.1259,0,.2646-.065.3486-.34.3467-.9943,0-.9943.0067-.9943-1.0009,0-1.84.0058-3.679-.0067-5.5175,0-.2865.07-.3686.362-.3658.9732.0115.9732,0,.9732.9809Z"/><path class="cls-11" d="M169.6875,77.9947c0-1.0277.0086-2.0544-.0057-3.082,0-.2579.0754-.3343.3237-.3143.3171.0258.73-.0955.9293.064s.0659.6.0669.915c.0076,1.849,0,3.699.0114,5.5471,0,.296-.0811.3591-.3629.3552-.9627-.0114-.9627,0-.9627-.9426Z"/><path class="cls-11" d="M136.809,61.1672c0,1.0411-.0076,2.0821.0058,3.1231,0,.2655-.0669.3477-.34.3467-.9857,0-.9857.0076-.9857-.9684,0-1.851.0067-3.7019-.0066-5.5528,0-.2866.0725-.3658.3619-.363.9647.0115.9647,0,.9647.9465Z"/><path class="cls-11" d="M135.2456,54.5953a.9113.9113,0,1,1,.8935.9289.9112.9112,0,0,1-.8935-.9289Z"/><path class="cls-11" d="M264.0269,54.6135a.914.914,0,1,1,0-.0594Q264.028,54.5838,264.0269,54.6135Z"/><path class="cls-11" d="M171.2519,71.4476a.9036.9036,0,0,1-1.807.0316h0a.9036.9036,0,0,1,1.807-.0316Z"/></g></svg>