<svg id="Capa_1" data-name="Capa 1" xmlns="http://www.w3.org/2000/svg" viewBox="0 0 299.5249 88.202"><defs><style>.cls-1{fill:#015ae2;}</style></defs><circle class="cls-1" cx="55.6851" cy="44.101" r="2.3759"/><circle class="cls-1" cx="68.5827" cy="66.4463" r="2.3759"/><path class="cls-1" d="M70.9586,59.9974V50.55a2.3759,2.3759,0,0,0-4.7518,0v9.4476a2.3759,2.3759,0,1,0,4.7518,0Z"/><circle class="cls-1" cx="62.1339" cy="50.539" r="2.3759"/><path class="cls-1" d="M59.758,56.9987V69.0652a2.3759,2.3759,0,0,0,4.7518,0V56.9987a2.3759,2.3759,0,0,0-4.7518,0Z"/><circle class="cls-1" cx="81.4804" cy="44.101" r="2.3759"/><path class="cls-1" d="M75.0315,41.7251H62.1285a2.3759,2.3759,0,0,0,0,4.7518h12.903a2.3759,2.3759,0,0,0,0-4.7518Z"/><circle class="cls-1" cx="29.8843" cy="44.101" r="2.3759"/><path class="cls-1" d="M36.3332,46.4769h12.903a2.3759,2.3759,0,0,0,0-4.7518H36.3332a2.3759,2.3759,0,0,0,0,4.7518Z"/><circle class="cls-1" cx="55.6824" cy="18.303" r="2.3759"/><path class="cls-1" d="M53.3065,24.7519v12.903a2.3759,2.3759,0,1,0,4.7517,0V24.7519a2.3759,2.3759,0,1,0-4.7517,0Z"/><circle class="cls-1" cx="55.6824" cy="69.899" r="2.3759"/><path class="cls-1" d="M58.0582,63.45V50.5471a2.3759,2.3759,0,0,0-4.7517,0V63.45a2.3759,2.3759,0,1,0,4.7517,0Z"/><circle class="cls-1" cx="62.1339" cy="50.539" r="2.3759"/><path class="cls-1" d="M80.6686,48.174H75.0315a2.3759,2.3759,0,0,0,0,4.7517h5.6371a2.3759,2.3759,0,1,0,0-4.7517Z"/><circle class="cls-1" cx="42.7874" cy="21.7449" r="2.3759"/><path class="cls-1" d="M40.4115,28.1938v9.4476a2.3759,2.3759,0,0,0,4.7518,0V28.1938a2.3759,2.3759,0,0,0-4.7518,0Z"/><path class="cls-1" d="M51.6121,31.1925V19.126a2.3759,2.3759,0,0,0-4.7517,0V31.1925a2.3759,2.3759,0,1,0,4.7517,0Z"/><circle class="cls-1" cx="49.2362" cy="37.6522" r="2.3759"/><path class="cls-1" d="M30.7015,40.0173h5.6371a2.3759,2.3759,0,1,0,0-4.7518H30.7015a2.3759,2.3759,0,1,0,0,4.7518Z"/><path class="cls-1" d="M33.9627,27.0571V31.198a2.3759,2.3759,0,0,0,4.7518,0V27.0571a2.3759,2.3759,0,0,0-4.7518,0Z"/><path class="cls-1" d="M77.4074,61.1341V56.9932a2.3759,2.3759,0,0,0-4.7517,0v4.1409a2.3759,2.3759,0,1,0,4.7517,0Z"/><circle class="cls-1" cx="78.0357" cy="31.198" r="2.3759"/><path class="cls-1" d="M71.5869,28.8221H62.1393a2.3759,2.3759,0,1,0,0,4.7517h9.4476a2.3759,2.3759,0,1,0,0-4.7517Z"/><circle class="cls-1" cx="62.1285" cy="37.6468" r="2.3759"/><path class="cls-1" d="M68.5881,40.0227H80.6546a2.3759,2.3759,0,0,0,0-4.7518H68.5881a2.3759,2.3759,0,0,0,0,4.7518Z"/><circle class="cls-1" cx="62.1285" cy="37.6468" r="2.3759"/><path class="cls-1" d="M59.7634,19.112v5.6371a2.3759,2.3759,0,1,0,4.7518,0V19.112a2.3759,2.3759,0,1,0-4.7518,0Z"/><circle class="cls-1" cx="33.3344" cy="56.9933" r="2.3759"/><path class="cls-1" d="M39.7832,59.3691h9.4476a2.3759,2.3759,0,1,0,0-4.7517H39.7832a2.3759,2.3759,0,1,0,0,4.7517Z"/><path class="cls-1" d="M42.782,48.1685H30.7155a2.3759,2.3759,0,0,0,0,4.7518H42.782a2.3759,2.3759,0,0,0,0-4.7518Z"/><circle class="cls-1" cx="49.2416" cy="50.5444" r="2.3759"/><path class="cls-1" d="M51.6067,69.0792V63.4421a2.3759,2.3759,0,1,0-4.7518,0v5.6371a2.3759,2.3759,0,0,0,4.7518,0Z"/><path class="cls-1" d="M38.6466,65.818h4.1408a2.3759,2.3759,0,0,0,0-4.7518H38.6466a2.3759,2.3759,0,0,0,0,4.7518Z"/><path class="cls-1" d="M72.7235,22.3732H68.5827a2.3759,2.3759,0,0,0,0,4.7518h4.1408a2.3759,2.3759,0,1,0,0-4.7518Z"/><path class="cls-1" d="M90.5532,59.4372a8.1784,8.1784,0,0,1,2.34-5.9286,8.08,8.08,0,0,1,6.0622-2.407,9.546,9.546,0,0,1,4.3237,1.0252v1.5156a7.6491,7.6491,0,0,0-4.3237-1.27,6.7727,6.7727,0,0,0-5.0814,2.017,7.0568,7.0568,0,0,0,5.1708,12.0688,7.7038,7.7038,0,0,0,4.5245-1.4041v1.5156a8.7855,8.7855,0,0,1-4.5917,1.159,8.1864,8.1864,0,0,1-6.0622-2.3737A8.0511,8.0511,0,0,1,90.5532,59.4372Z"/><path class="cls-1" d="M106.7339,67.4831V51.3467h1.36v7.1321h9.7618V51.3467h1.36V67.4831h-1.36V59.7269h-9.7618v7.7562Z"/><path class="cls-1" d="M123.227,67.4831V51.3467h1.36V67.4831Z"/><path class="cls-1" d="M128.598,67.4831V51.3467h1.36v7.1321H139.72V51.3467h1.36V67.4831h-1.36V59.7269h-9.7618v7.7562Z"/><path class="cls-1" d="M146.2943,65.7a5.7052,5.7052,0,0,1-1.1031-2.4071,16.9728,16.9728,0,0,1-.3009-3.4768V51.3467h1.36v8.3579q0,3.7226,1.1145,5.1485a4.553,4.553,0,0,0,3.8332,1.6047,4.3527,4.3527,0,0,0,4.0119-1.8944,9.6144,9.6144,0,0,0,.8693-4.8142V51.3467h1.3147v8.3357a19.2565,19.2565,0,0,1-.2452,3.3988,6.1851,6.1851,0,0,1-.8915,2.3068q-1.5827,2.34-5.1257,2.34A5.7921,5.7921,0,0,1,146.2943,65.7Z"/><path class="cls-1" d="M159.1322,67.4831l6.7085-16.1364h1.2925l6.7536,16.1364h-1.4713l-1.9838-4.8142H162.52l-1.9838,4.8142Zm10.7869-6.0623-1.6263-3.9895q-.9587-2.3622-1.7837-4.4352h-.0443q-.847,2.1621-1.7829,4.413l-1.6493,4.0117Z"/><path class="cls-1" d="M176.1372,67.4831V51.3467h1.36v7.1321h9.7618V51.3467h1.36V67.4831h-1.36V59.7269h-9.7618v7.7562Z"/><path class="cls-1" d="M193.8335,65.7a5.7038,5.7038,0,0,1-1.103-2.4071,16.965,16.965,0,0,1-.301-3.4768V51.3467h1.36v8.3579q0,3.7226,1.1145,5.1485a4.553,4.553,0,0,0,3.8332,1.6047,4.3529,4.3529,0,0,0,4.012-1.8944,9.6144,9.6144,0,0,0,.8693-4.8142V51.3467h1.3147v8.3357a19.2565,19.2565,0,0,1-.2452,3.3988,6.1868,6.1868,0,0,1-.8915,2.3068q-1.5828,2.34-5.1257,2.34A5.7923,5.7923,0,0,1,193.8335,65.7Z"/><path class="cls-1" d="M206.6715,67.4831,213.38,51.3467h1.2925l6.7535,16.1364h-1.4712l-1.9838-4.8142h-7.9117l-1.9838,4.8142Zm10.7869-6.0623-1.6264-3.9895q-.9586-2.3622-1.7836-4.4352h-.0443q-.8472,2.1621-1.783,4.413l-1.6492,4.0117Z"/><path class="cls-1" d="M97.2262,37.2054v.139a2.9193,2.9193,0,0,0,.9384,2.3286c1.2164,1.2164,3.4407,1.3207,4.6919,1.3207a7.03,7.03,0,0,0,3.4755-.5561,2.86,2.86,0,0,0,1.5988-2.4329c0-.5561-.2085-1.4944-1.703-2.0853a29.9912,29.9912,0,0,0-3.3713-.7994l-3.51-.556c-2.6761-.3823-5.7346-.9037-7.2986-2.6414A5.6469,5.6469,0,0,1,90.6922,28.03a6.7985,6.7985,0,0,1,3.3365-6.2212c2.4328-1.4945,5.4218-1.7378,7.9589-1.7378,4.414,0,6.8468.66,8.48,1.6335a6.0639,6.0639,0,0,1,3.267,5.9084H107.27a2.5674,2.5674,0,0,0-1.46-2.2243,10.292,10.292,0,0,0-3.8926-.66,6.67,6.67,0,0,0-3.3365.66,2.5015,2.5015,0,0,0-1.2164,2.12c0,1.1122.9384,1.564,1.7377,1.8421a18.7644,18.7644,0,0,0,4.1707.8689l2.78.4518c2.19.3823,4.5529.7993,6.1864,2.0158a6.2452,6.2452,0,0,1,2.4677,5.3175,6.92,6.92,0,0,1-2.85,5.9084c-1.2859.9037-3.545,1.8768-8.5845,1.8768-3.8926,0-8.237-.2433-10.7394-2.85a7.8453,7.8453,0,0,1-1.981-5.5956v-.139Z"/><path class="cls-1" d="M116.6768,25.6319V20.7661h23.3555v4.8658h-8.48V45.0948h-6.3949V25.6319Z"/><path class="cls-1" d="M143.8112,45.0948h-6.673l10.9131-24.3287h6.2907l10.9132,24.3287h-6.673l-2.12-4.9352H145.9312Zm11.1217-9.1059-3.7536-9.1059-3.6841,9.1059Z"/><path class="cls-1" d="M168.1961,20.7661h14.3887c2.3981,0,5.8389.139,7.8895,2.19a6.3211,6.3211,0,0,1,1.6682,4.6224,5.72,5.72,0,0,1-1.5987,4.31,6.9209,6.9209,0,0,1-3.128,1.703v.139a5.1274,5.1274,0,0,1,2.85,1.46c1.147,1.2164,1.1122,2.4328,1.2165,3.684l.1737,2.7457a6.8364,6.8364,0,0,0,1.008,3.4755h-6.7773a5.067,5.067,0,0,1-.9384-3.0932l-.1043-2.0158a4.19,4.19,0,0,0-1.1469-2.9542,5.2711,5.2711,0,0,0-3.128-.8689h-5.9779v8.9321h-6.395Zm6.9433,10.8089h6.7773a4.5388,4.5388,0,0,0,3.3713-.9731,2.9114,2.9114,0,0,0,.7993-2.0854,2.7412,2.7412,0,0,0-1.1816-2.3633,7.3777,7.3777,0,0,0-3.0585-.5213h-6.7078Z"/><path class="cls-1" d="M195.13,25.6319V20.7661h23.3556v4.8658h-8.48V45.0948H203.61V25.6319Z"/><path class="cls-1" d="M245.6157,35.5371c0,1.9463-.1043,4.97-2.4676,7.3334-2.6067,2.6066-6.256,2.85-9.6273,2.85s-7.02-.2433-9.6272-2.85c-2.3633-2.3634-2.4676-5.3871-2.4676-7.3334V20.7661h6.395V34.8768c0,1.1469.0347,3.1627,1.3554,4.4834,1.1817,1.2859,3.267,1.3554,4.3444,1.3554,1.1122,0,3.0933-.1042,4.3445-1.3554,1.3207-1.3207,1.3554-3.3713,1.3554-4.4834V20.7661h6.395Z"/><path class="cls-1" d="M261.59,20.7661c3.3365,0,6.0474.2433,8.1675,2.19a7.5394,7.5394,0,0,1,2.2591,5.8041,8.0312,8.0312,0,0,1-1.9811,5.7694c-2.2243,2.3981-5.3523,2.5371-8.8626,2.5371h-6.2212v8.0285h-6.395V20.7661ZM254.9516,32.34h5.7694c1.1817,0,2.9542-.1738,3.7883-1.0079a3.5082,3.5082,0,0,0,.9037-2.5024,2.9124,2.9124,0,0,0-1.1817-2.5023,5.2434,5.2434,0,0,0-3.128-.6951h-6.1517Z"/></svg>